<svg width="131" height="97" viewBox="0 0 131 97" fill="none" xmlns="http://www.w3.org/2000/svg">
<path d="M76.8624 94V94.5H77.3624H129.442H129.942V94V82.22V81.72H129.442H112.086V2.612V2.112H111.586H100.798H100.652L100.528 2.19141C95.394 5.49186 89.3867 7.58325 80.8658 9.18865L80.4584 9.26541V9.68001V18.732V19.232H80.9584H96.8264V81.72H77.3624H76.8624V82.22V94ZM1.30762 47.996C1.30762 63.9177 4.22885 75.9311 9.4481 83.98C14.684 92.0547 22.218 96.112 31.3196 96.112C40.4212 96.112 47.9552 92.0547 53.1911 83.98C58.4104 75.9311 61.3316 63.9177 61.3316 47.996C61.3316 32.1979 58.4103 20.338 53.1892 12.412C47.951 4.46004 40.4164 0.5 31.3196 0.5C22.2242 0.5 14.6892 4.42785 9.45032 12.3651C4.22882 20.276 1.30762 32.1363 1.30762 47.996ZM46.6916 47.996C46.6916 61.1757 45.0495 70.1684 42.2933 75.8482C40.9182 78.682 39.2747 80.6727 37.4369 81.9553C35.6034 83.2349 33.5505 83.828 31.3196 83.828C29.0887 83.828 27.0358 83.2349 25.2023 81.9553C23.3645 80.6727 21.7211 78.682 20.346 75.8482C17.5898 70.1684 15.9476 61.1757 15.9476 47.996C15.9476 34.9402 17.5899 26.1047 20.3441 20.5506C21.7179 17.7803 23.3598 15.8435 25.1967 14.5986C27.03 13.3561 29.0847 12.784 31.3196 12.784C33.5545 12.784 35.6092 13.3561 37.4425 14.5986C39.2794 15.8435 40.9214 17.7803 42.2952 20.5506C45.0494 26.1047 46.6916 34.9402 46.6916 47.996Z" stroke="black"/>
</svg>
