<svg width="132" height="97" viewBox="0 0 132 97" fill="none" xmlns="http://www.w3.org/2000/svg">
<path d="M71.0984 94V94.5H71.5984H130.498H130.998V94V81.848V81.348H130.498H107.682C103.644 81.348 98.6052 81.6506 94.1938 82.0736C103.435 73.1617 111.417 64.2917 117.153 55.5079C123.103 46.3957 126.658 37.3411 126.658 28.404C126.658 20.0469 123.923 13.0614 119.025 8.16395C114.128 3.26636 107.111 0.5 98.6304 0.5C86.5414 0.5 78.357 5.6813 70.4852 14.3029L70.1605 14.6585L70.5036 14.9963L78.5636 22.9323L78.9433 23.3061L79.2922 22.9035C84.1008 17.3551 89.9258 12.908 96.8944 12.908C101.924 12.908 105.651 14.5698 108.128 17.3881C110.614 20.2161 111.894 24.2702 111.894 29.148C111.894 36.4959 108.492 44.5752 101.684 53.8221C94.8798 63.0644 84.7115 73.422 71.2671 85.3175L71.0984 85.4668V85.692V94ZM0.751648 47.996C0.751648 63.9177 3.67288 75.9311 8.89213 83.98C14.128 92.0547 21.6621 96.112 30.7637 96.112C39.8652 96.112 47.3993 92.0547 52.6352 83.98C57.8544 75.9311 60.7756 63.9177 60.7756 47.996C60.7756 32.1979 57.8543 20.338 52.6332 12.412C47.395 4.46004 39.8604 0.5 30.7637 0.5C21.6683 0.5 14.1332 4.42785 8.89435 12.3651C3.67285 20.276 0.751648 32.1363 0.751648 47.996ZM46.1357 47.996C46.1357 61.1757 44.4935 70.1684 41.7373 75.8482C40.3622 78.682 38.7187 80.6727 36.8809 81.9553C35.0474 83.2349 32.9945 83.828 30.7637 83.828C28.5328 83.828 26.4799 83.2349 24.6464 81.9553C22.8086 80.6727 21.1651 78.682 19.79 75.8482C17.0338 70.1684 15.3916 61.1757 15.3916 47.996C15.3916 34.9402 17.0339 26.1047 19.7881 20.5506C21.1619 17.7803 22.8039 15.8435 24.6407 14.5986C26.474 13.3561 28.5288 12.784 30.7637 12.784C32.9985 12.784 35.0533 13.3561 36.8866 14.5986C38.7234 15.8435 40.3654 17.7803 41.7392 20.5506C44.4934 26.1047 46.1357 34.9402 46.1357 47.996Z" stroke="black"/>
</svg>
