<svg width="132" height="97" viewBox="0 0 132 97" fill="none" xmlns="http://www.w3.org/2000/svg">
<path d="M69.7757 82.7863L69.5278 83.1139L69.801 83.4206C75.9644 90.3387 85.3969 96.112 99.9344 96.112C108.396 96.112 116.14 93.6679 121.778 89.1031C127.427 84.5302 130.938 77.8473 130.938 69.448C130.938 57.112 122.716 49.0761 112.267 46.2895C121.812 42.5668 127.838 35.1571 127.838 24.56C127.838 16.9176 124.895 10.8814 119.842 6.76582C114.801 2.66007 107.704 0.5 99.4384 0.5C88.7365 0.5 80.1907 5.1636 72.9406 11.6637L72.5815 11.9856L72.8903 12.3561L80.3303 21.2841L80.6766 21.6997L81.0636 21.3218C86.2127 16.2953 92.0471 13.0315 98.9432 12.9081C103.188 12.9702 106.557 14.2124 108.862 16.3691C111.163 18.5226 112.454 21.6368 112.454 25.552C112.454 30.0226 111.011 33.8573 107.427 36.5936C103.818 39.3497 97.9636 41.048 89.0224 41.048H88.5224V41.548V52.088V52.588H89.0224C99.2804 52.588 105.914 54.2293 109.973 57.0405C113.991 59.8236 115.554 63.8031 115.554 68.704C115.554 73.3452 113.841 77.0147 110.908 79.531C107.966 82.0548 103.752 83.456 98.6944 83.456C89.4557 83.456 82.7565 78.9659 77.476 73.5625L77.0701 73.1472L76.7197 73.6103L69.7757 82.7863ZM1.31161 47.996C1.31161 63.9177 4.23285 75.9311 9.45209 83.98C14.688 92.0547 22.222 96.112 31.3236 96.112C40.4252 96.112 47.9592 92.0547 53.1951 83.98C58.4144 75.9311 61.3356 63.9177 61.3356 47.996C61.3356 32.1979 58.4143 20.338 53.1932 12.412C47.955 4.46004 40.4204 0.5 31.3236 0.5C22.2282 0.5 14.6932 4.42785 9.45432 12.3651C4.23282 20.276 1.31161 32.1363 1.31161 47.996ZM46.6956 47.996C46.6956 61.1757 45.0535 70.1684 42.2973 75.8482C40.9222 78.682 39.2787 80.6727 37.4409 81.9553C35.6074 83.2349 33.5545 83.828 31.3236 83.828C29.0927 83.828 27.0398 83.2349 25.2063 81.9553C23.3685 80.6727 21.725 78.682 20.35 75.8482C17.5938 70.1684 15.9516 61.1757 15.9516 47.996C15.9516 34.9402 17.5939 26.1047 20.3481 20.5506C21.7219 17.7803 23.3638 15.8435 25.2007 14.5986C27.034 13.3561 29.0887 12.784 31.3236 12.784C33.5585 12.784 35.6132 13.3561 37.4465 14.5986C39.2834 15.8435 40.9254 17.7803 42.2992 20.5506C45.0534 26.1047 46.6956 34.9402 46.6956 47.996Z" stroke="black"/>
</svg>
