<svg width="135" height="97" viewBox="0 0 135 97" fill="none" xmlns="http://www.w3.org/2000/svg">
<path d="M101.603 31.1574L101.613 31.142L101.622 31.1258C104.029 26.7705 106.332 22.4116 108.432 18.0502C108.189 23.0725 107.876 29.9212 107.876 34.48V57.912H84.1282L101.603 31.1574ZM107.876 94V94.5H108.376H121.768H122.268V94V69.948H133.3H133.8V69.448V58.412V57.912H133.3H122.268V2.612V2.112H121.768H105.152H104.877L104.73 2.34421L68.3981 59.6322L68.3204 59.7548V59.9V69.448V69.948H68.8204H107.876V94ZM0.949623 47.996C0.949623 63.9177 3.87086 75.9311 9.0901 83.98C14.326 92.0547 21.86 96.112 30.9616 96.112C40.0632 96.112 47.5972 92.0547 52.8331 83.98C58.0524 75.9311 60.9736 63.9177 60.9736 47.996C60.9736 32.1979 58.0523 20.338 52.8312 12.412C47.593 4.46004 40.0584 0.5 30.9616 0.5C21.8663 0.5 14.3312 4.42785 9.09233 12.3651C3.87083 20.276 0.949623 32.1363 0.949623 47.996ZM46.3336 47.996C46.3336 61.1757 44.6915 70.1684 41.9353 75.8482C40.5602 78.682 38.9167 80.6727 37.0789 81.9553C35.2454 83.2349 33.1925 83.828 30.9616 83.828C28.7307 83.828 26.6778 83.2349 24.8443 81.9553C23.0066 80.6727 21.3631 78.682 19.988 75.8482C17.2318 70.1684 15.5896 61.1757 15.5896 47.996C15.5896 34.9402 17.2319 26.1047 19.9861 20.5506C21.3599 17.7803 23.0018 15.8435 24.8387 14.5986C26.672 13.3561 28.7267 12.784 30.9616 12.784C33.1965 12.784 35.2512 13.3561 37.0845 14.5986C38.9214 15.8435 40.5634 17.7803 41.9372 20.5506C44.6914 26.1047 46.3336 34.9402 46.3336 47.996Z" stroke="black"/>
</svg>
