<svg width="1110" height="998" viewBox="0 0 1110 998" fill="none" xmlns="http://www.w3.org/2000/svg">
<path d="M116.959 982.402C107.035 989.485 96.9424 994.293 86.6808 996.826C76.5631 999.256 66.6954 997.914 57.0779 992.8C47.4603 987.686 38.4684 977.484 30.1022 962.193C21.736 946.903 14.4144 925.027 8.13748 896.566C2.48822 870.951 -0.219634 847.729 0.013907 826.9C0.190387 805.811 2.64737 787.138 7.38486 770.879C12.1224 754.621 18.5948 740.568 26.8021 728.721C35.0094 716.874 44.2907 707.255 54.646 699.864C61.9811 694.628 69.3286 690.582 76.6887 687.724C84.1926 684.764 89.8119 683.448 93.5467 683.777L128.296 704.344L120.845 783.779L72.1074 779.036C67.2173 782.527 63.1571 788.27 59.9265 796.265C56.7828 803.899 54.8717 813.349 54.1933 824.614C53.6017 835.517 54.7895 847.696 57.7568 861.15C61.523 878.227 65.8714 890.396 70.8022 897.657C75.8197 904.557 81.4321 907.738 87.6392 907.201C93.9902 906.561 100.977 903.521 108.6 898.08C115.935 892.845 122.553 886.624 128.454 879.417C134.443 871.849 139.554 864.457 143.789 857.242C148.024 850.026 151.151 844.201 153.169 839.766L170.288 917.387C167.982 922.027 164.596 928.187 160.131 935.866C155.752 943.184 149.993 951.038 142.854 959.427C135.802 967.455 127.171 975.113 116.959 982.402Z" fill="white"/>
<path d="M202.58 916.798L155.759 704.506L142.799 668.388L141.979 642.022L219.644 586.588C231.293 578.273 242.031 574.502 251.856 575.275C261.682 576.049 270.479 582.347 278.247 594.172C285.958 605.737 292.496 623.681 297.859 648.002C302.824 670.512 304.819 690.5 303.843 707.966C302.868 725.432 299.18 740.791 292.781 754.043L297.647 756.859L320.579 782.715L337.241 793.732L342.377 817.018L285.207 857.823L245.812 803.738L234.378 811.899L236.261 820.438L246.978 857.708L250.042 882.922L202.58 916.798ZM218.372 739.324L230.884 730.393C235.918 726.8 240.147 723.333 243.572 719.99C247.14 716.545 249.503 712.163 250.66 706.845C251.761 701.268 251.313 693.952 249.315 684.896C247.204 675.323 244.613 669.236 241.543 666.636C238.472 664.036 234.91 663.734 230.856 665.73C226.888 667.364 222.387 669.977 217.353 673.57L203.546 683.425L218.372 739.324Z" fill="white"/>
<path d="M346.752 813.895L342.642 740.914L331.771 691.625L345.168 668.588L342.759 499.163L407.696 452.815L482.933 600.354L511.7 643.607L521.714 689.015L474.899 722.429L451.359 672.301L392.894 714.031L396.371 778.479L346.752 813.895ZM392.154 635.95L424.514 612.853L393.242 545.783L388.712 549.017L392.154 635.95Z" fill="white"/>
<path d="M534.886 679.614L523.062 661.101L551.084 434.92L490.462 478.189L474.285 404.838L598.333 316.298L608.433 362.094L586.45 557.912L593.137 553.139L641.476 509.653L659.366 590.766L534.886 679.614Z" fill="white"/>
<path d="M722.62 545.618L697.798 433.069L613.652 332.316L608.517 309.03L662.666 270.38L701.872 334.931L706.187 331.851L709.913 236.658L763.847 198.163L768.982 221.449L745.126 401.983L755.066 440.258L770.729 511.281L722.62 545.618Z" fill="white"/>
<path d="M910.304 416.151C885.135 434.116 865.016 437.994 849.947 427.787C834.821 417.322 822.807 391.908 813.905 351.545L791.65 250.638L783.221 211.286L777.87 188.154L826.194 153.662L857.95 297.648C860.575 309.55 863.418 319.798 866.479 328.394C869.483 336.731 873.21 342.307 877.659 345.12C882.108 347.934 887.713 346.929 894.472 342.104C901.376 337.176 905.968 331.203 908.249 324.185C910.53 317.167 911.175 308.771 910.184 298.996C909.194 289.222 907.244 277.737 904.333 264.542L872.578 120.556L919.824 86.8338L955.859 250.225C961.68 276.616 964.1 300.043 963.12 320.507C962.083 340.713 957.3 358.651 948.77 374.321C940.241 389.992 927.419 403.935 910.304 416.151Z" fill="white"/>
<path d="M1008.43 341.621L961.61 129.329L948.65 93.2108L947.829 66.845L1025.49 11.4115C1037.14 3.09649 1047.88 -0.674466 1057.71 0.0986525C1067.53 0.871792 1076.33 7.17051 1084.1 18.9948C1091.81 30.5604 1098.35 48.5037 1103.71 72.8248C1111.76 109.306 1112.08 139.469 1104.69 163.312C1097.38 186.794 1083.81 205.618 1063.96 219.784L1040.23 236.723L1042.11 245.261L1052.83 282.531L1055.89 307.745L1008.43 341.621ZM1024.22 164.147L1036.74 155.217C1041.77 151.624 1046 148.156 1049.42 144.813C1052.99 141.368 1055.35 136.986 1056.51 131.668C1057.61 126.091 1057.16 118.775 1055.17 109.719C1053.05 100.146 1050.46 94.0595 1047.39 91.4595C1044.32 88.8596 1040.76 88.5574 1036.71 90.5529C1032.74 92.1869 1028.24 94.8004 1023.2 98.3933L1009.4 108.248L1024.22 164.147Z" fill="white"/>
</svg>
